<svg xmlns="http://www.w3.org/2000/svg" xmlns:xlink="http://www.w3.org/1999/xlink" width="375" viewBox="0 0 375 375" height="375" version="1.0"><defs><clipPath id="d"><path d="M 0.710938 18.453125 L 315.679688 18.453125 L 315.679688 333.128906 L 0.710938 333.128906 Z M 0.710938 18.453125"/></clipPath><clipPath id="e"><path d="M 17 1.542969 L 341.960938 1.542969 L 341.960938 327 L 17 327 Z M 17 1.542969"/></clipPath><clipPath id="c"><path d="M0 0H343V334H0z"/></clipPath><filter x="0%" y="0%" width="100%" xmlns:xlink="http://www.w3.org/1999/xlink" xlink:type="simple" xlink:actuate="onLoad" height="100%" id="a" xlink:show="other"><feColorMatrix values="0 0 0 0 1 0 0 0 0 1 0 0 0 0 1 0 0 0 1 0" color-interpolation-filters="sRGB"/></filter><mask id="b"><g filter="url(#a)"><path fill-opacity=".949" d="M-37.5 -37.5H412.5V412.5H-37.5z"/></g></mask></defs><g mask="url(#b)"><g><g clip-path="url(#c)" transform="translate(16 20)"><g clip-path="url(#d)"><path fill="#DE6A99" d="M 157.996094 18.605469 C 244.863281 18.605469 315.28125 89.015625 315.28125 175.867188 C 315.28125 262.722656 244.863281 333.128906 157.996094 333.128906 C 71.128906 333.128906 0.710938 262.722656 0.710938 175.867188 C 0.710938 89.015625 71.128906 18.605469 157.996094 18.605469"/></g><g clip-path="url(#e)"><path fill="#FF66C4" d="M 331.410156 163.992188 C 331.3125 195.617188 321.496094 226.25 303.296875 252.105469 C 285.789062 276.980469 260.324219 296.242188 231.808594 306.71875 C 201.75 317.761719 168.578125 318.839844 137.785156 310.203125 C 108.097656 301.875 81.695312 284.171875 62 260.554688 C 21.070312 211.476562 16.597656 139.597656 49.433594 85.164062 C 65.28125 58.886719 89.167969 38.105469 117.003906 25.339844 C 145.796875 12.136719 178.976562 8.78125 209.9375 15.066406 C 240.285156 21.230469 268.058594 36.867188 289.46875 59.164062 C 310.984375 81.574219 324.863281 110.417969 329.722656 141.03125 C 330.925781 148.613281 331.386719 156.320312 331.410156 163.992188 C 331.429688 170.808594 342 170.808594 341.980469 163.992188 C 341.878906 131.882812 332.394531 100.289062 314.527344 73.589844 C 297.195312 47.691406 272.351562 27.015625 243.730469 14.710938 C 213.585938 1.746094 180.15625 -1.628906 147.949219 4.5 C 117.050781 10.382812 88.28125 25.894531 65.769531 47.757812 C 19.1875 93 4.300781 164.253906 28.496094 224.449219 C 40.242188 253.664062 60.335938 278.738281 85.953125 296.988281 C 111.988281 315.535156 143.5625 325.601562 175.441406 326.488281 C 239.710938 328.277344 300.457031 290.042969 327.207031 231.726562 C 336.949219 210.492188 341.90625 187.34375 341.980469 163.992188 C 342 157.175781 331.429688 157.179688 331.410156 163.992188"/></g></g></g></g></svg>