<svg xmlns="http://www.w3.org/2000/svg" width="56.25" viewBox="0 0 56.25 56.25" height="56.25" version="1.0"><defs><clipPath id="a"><path d="M 12.371094 12.371094 L 43.453125 12.371094 L 43.453125 43.453125 L 12.371094 43.453125 Z M 12.371094 12.371094"/></clipPath></defs><g clip-path="url(#a)"><path fill="#3B5998" d="M 17.03125 12.371094 L 38.792969 12.371094 C 39.097656 12.371094 39.402344 12.398438 39.703125 12.457031 C 40 12.519531 40.292969 12.605469 40.578125 12.722656 C 40.859375 12.839844 41.128906 12.984375 41.382812 13.15625 C 41.636719 13.324219 41.871094 13.519531 42.089844 13.734375 C 42.304688 13.953125 42.5 14.1875 42.667969 14.441406 C 42.839844 14.695312 42.984375 14.964844 43.101562 15.246094 C 43.21875 15.53125 43.304688 15.820312 43.363281 16.121094 C 43.425781 16.421875 43.453125 16.726562 43.453125 17.03125 L 43.453125 38.792969 C 43.453125 39.097656 43.425781 39.402344 43.363281 39.703125 C 43.304688 40 43.21875 40.292969 43.101562 40.578125 C 42.984375 40.859375 42.839844 41.128906 42.667969 41.382812 C 42.5 41.636719 42.304688 41.871094 42.089844 42.089844 C 41.871094 42.304688 41.636719 42.5 41.382812 42.667969 C 41.128906 42.839844 40.859375 42.984375 40.578125 43.101562 C 40.292969 43.21875 40 43.304688 39.703125 43.363281 C 39.402344 43.425781 39.097656 43.453125 38.792969 43.453125 L 17.03125 43.453125 C 16.726562 43.453125 16.421875 43.425781 16.121094 43.363281 C 15.820312 43.304688 15.53125 43.21875 15.246094 43.101562 C 14.964844 42.984375 14.695312 42.839844 14.441406 42.667969 C 14.1875 42.5 13.953125 42.304688 13.734375 42.089844 C 13.519531 41.871094 13.324219 41.636719 13.15625 41.382812 C 12.984375 41.128906 12.839844 40.859375 12.722656 40.578125 C 12.605469 40.292969 12.519531 40 12.457031 39.703125 C 12.398438 39.402344 12.371094 39.097656 12.371094 38.792969 L 12.371094 17.03125 C 12.371094 16.726562 12.398438 16.421875 12.457031 16.121094 C 12.519531 15.820312 12.605469 15.53125 12.722656 15.246094 C 12.839844 14.964844 12.984375 14.695312 13.15625 14.441406 C 13.324219 14.1875 13.519531 13.953125 13.734375 13.734375 C 13.953125 13.519531 14.1875 13.324219 14.441406 13.15625 C 14.695312 12.984375 14.964844 12.839844 15.246094 12.722656 C 15.53125 12.605469 15.820312 12.519531 16.121094 12.457031 C 16.421875 12.398438 16.726562 12.371094 17.03125 12.371094 Z M 17.03125 12.371094"/></g><path fill="#FFF" d="M 29.792969 40.054688 L 29.792969 21.902344 C 29.792969 20.625 30.160156 19.777344 31.917969 19.777344 L 34.226562 19.777344 L 34.226562 15.953125 C 33.800781 15.890625 32.464844 15.769531 30.886719 15.769531 C 27.609375 15.769531 25.363281 17.773438 25.363281 21.476562 L 25.363281 40.054688 M 34.042969 24.632812 L 21.597656 24.632812 L 21.597656 29.003906 L 33.496094 29.003906"/></svg>