<svg xmlns="http://www.w3.org/2000/svg" width="150" viewBox="0 0 150 150" height="150" version="1.0"><defs><clipPath id="a"><path d="M 63 45 L 88 45 L 88 105 L 63 105 Z M 63 45"/></clipPath><clipPath id="b"><path d="M 86.355469 44.6875 L 87.925781 104.667969 L 63.933594 105.296875 L 62.367188 45.316406 Z M 86.355469 44.6875"/></clipPath><clipPath id="c"><path d="M 86.355469 44.6875 L 87.925781 104.667969 L 63.933594 105.296875 L 62.367188 45.316406 Z M 86.355469 44.6875"/></clipPath></defs><g clip-path="url(#a)"><g clip-path="url(#b)"><g clip-path="url(#c)"><path d="M 79.265625 90.40625 C 79.96875 89.464844 80.675781 88.519531 81.375 87.570312 C 81.800781 86.996094 82.203125 86.40625 82.632812 85.835938 C 83.980469 84.058594 85.652344 83.992188 87.328125 85.707031 C 86.894531 86.40625 86.441406 87.125 85.992188 87.84375 C 82.875 92.820312 79.78125 97.808594 76.632812 102.757812 C 75.308594 104.835938 74.601562 105.003906 72.316406 104.03125 C 71.796875 103.808594 71.3125 103.496094 70.816406 103.222656 C 69.957031 102.757812 69.472656 102.03125 69.363281 101.0625 C 69.230469 99.917969 69.113281 98.777344 68.980469 97.632812 C 68.554688 93.902344 67.738281 90.277344 66.09375 86.878906 C 65.597656 85.84375 65.089844 84.816406 64.050781 84.183594 C 63.820312 84.042969 63.71875 83.6875 63.441406 83.246094 C 68.109375 83.1875 70.6875 85.699219 72.289062 89.628906 C 72.886719 89.335938 72.886719 88.8125 72.953125 88.390625 C 73.503906 84.847656 74.25 81.316406 74.492188 77.75 C 74.828125 72.886719 74.867188 67.996094 74.855469 63.113281 C 74.835938 58.613281 74.589844 54.117188 74.417969 49.617188 C 74.378906 48.617188 74.214844 47.617188 74.132812 46.613281 C 74.046875 45.582031 74.300781 45.171875 75.304688 45.039062 C 75.96875 44.949219 76.660156 45.085938 77.4375 45.128906 C 78.609375 52.78125 79.402344 60.292969 79.820312 67.851562 C 80.234375 75.363281 79.894531 82.84375 78.859375 90.296875 C 78.992188 90.332031 79.128906 90.367188 79.265625 90.40625 Z M 79.265625 90.40625"/></g></g></g></svg>