<svg xmlns="http://www.w3.org/2000/svg" width="56.25" viewBox="0 0 56.25 56.25" height="56.25" version="1.0"><defs><clipPath id="a"><path d="M 12.191406 12.191406 L 45.496094 12.191406 L 45.496094 45.496094 L 12.191406 45.496094 Z M 12.191406 12.191406"/></clipPath></defs><g clip-path="url(#a)"><path fill="#BD081B" d="M 17.1875 12.191406 L 40.5 12.191406 C 40.828125 12.191406 41.152344 12.222656 41.476562 12.285156 C 41.796875 12.351562 42.109375 12.445312 42.414062 12.570312 C 42.714844 12.695312 43.003906 12.851562 43.277344 13.03125 C 43.550781 13.214844 43.800781 13.421875 44.035156 13.652344 C 44.265625 13.886719 44.472656 14.136719 44.65625 14.410156 C 44.835938 14.683594 44.992188 14.972656 45.117188 15.273438 C 45.242188 15.578125 45.335938 15.890625 45.402344 16.210938 C 45.464844 16.535156 45.496094 16.859375 45.496094 17.1875 L 45.496094 40.5 C 45.496094 40.828125 45.464844 41.152344 45.402344 41.476562 C 45.335938 41.796875 45.242188 42.109375 45.117188 42.414062 C 44.992188 42.714844 44.835938 43.003906 44.65625 43.277344 C 44.472656 43.550781 44.265625 43.800781 44.035156 44.035156 C 43.800781 44.265625 43.550781 44.472656 43.277344 44.65625 C 43.003906 44.835938 42.714844 44.992188 42.414062 45.117188 C 42.109375 45.242188 41.796875 45.335938 41.476562 45.402344 C 41.152344 45.464844 40.828125 45.496094 40.5 45.496094 L 17.1875 45.496094 C 16.859375 45.496094 16.535156 45.464844 16.210938 45.402344 C 15.890625 45.335938 15.578125 45.242188 15.273438 45.117188 C 14.972656 44.992188 14.683594 44.835938 14.410156 44.65625 C 14.136719 44.472656 13.886719 44.265625 13.652344 44.035156 C 13.421875 43.800781 13.214844 43.550781 13.03125 43.277344 C 12.851562 43.003906 12.695312 42.714844 12.570312 42.414062 C 12.445312 42.109375 12.351562 41.796875 12.285156 41.476562 C 12.222656 41.152344 12.191406 40.828125 12.191406 40.5 L 12.191406 17.1875 C 12.191406 16.859375 12.222656 16.535156 12.285156 16.210938 C 12.351562 15.890625 12.445312 15.578125 12.570312 15.273438 C 12.695312 14.972656 12.851562 14.683594 13.03125 14.410156 C 13.214844 14.136719 13.421875 13.886719 13.652344 13.652344 C 13.886719 13.421875 14.136719 13.214844 14.410156 13.03125 C 14.683594 12.851562 14.972656 12.695312 15.273438 12.570312 C 15.578125 12.445312 15.890625 12.351562 16.210938 12.285156 C 16.535156 12.222656 16.859375 12.191406 17.1875 12.191406 Z M 17.1875 12.191406"/></g><path fill="#FFF" d="M 29.429688 15.832031 C 22.339844 15.832031 18.761719 20.90625 18.761719 25.199219 C 18.761719 27.738281 19.738281 30.015625 21.816406 30.859375 C 22.144531 30.992188 22.46875 30.859375 22.597656 30.535156 L 22.859375 29.300781 C 22.988281 28.910156 22.925781 28.777344 22.664062 28.453125 C 22.078125 27.738281 21.6875 26.828125 21.6875 25.527344 C 21.6875 21.753906 24.484375 18.371094 29.039062 18.371094 C 33.070312 18.371094 35.285156 20.84375 35.285156 24.09375 C 35.285156 28.453125 33.332031 32.03125 30.535156 32.03125 C 28.972656 32.03125 27.804688 30.796875 28.191406 29.167969 C 28.582031 27.28125 29.496094 25.265625 29.496094 23.898438 C 29.496094 22.664062 28.84375 21.625 27.476562 21.625 C 25.851562 21.625 24.617188 23.3125 24.617188 25.527344 C 24.617188 26.890625 25.070312 27.867188 25.070312 27.867188 L 23.121094 36 C 22.597656 38.40625 23.054688 41.398438 23.121094 41.660156 C 23.121094 41.855469 23.378906 41.917969 23.445312 41.789062 C 23.574219 41.59375 25.527344 39.25 26.175781 36.910156 L 27.21875 32.746094 C 27.738281 33.789062 29.234375 34.632812 30.859375 34.632812 C 35.675781 34.632812 38.925781 30.273438 38.925781 24.421875 C 38.925781 19.933594 35.152344 15.832031 29.429688 15.832031 Z M 29.429688 15.832031"/></svg>