<svg xmlns="http://www.w3.org/2000/svg" width="56.25" viewBox="0 0 56.25 56.25" height="56.25" version="1.0"><defs><clipPath id="a"><path d="M 12.726562 12.546875 L 46.03125 12.546875 L 46.03125 45.855469 L 12.726562 45.855469 Z M 12.726562 12.546875"/></clipPath></defs><g clip-path="url(#a)"><path fill="#1D9BF0" d="M 41.867188 45.855469 L 16.890625 45.855469 C 14.589844 45.855469 12.726562 43.988281 12.726562 41.691406 L 12.726562 16.710938 C 12.726562 14.414062 14.589844 12.546875 16.890625 12.546875 L 41.867188 12.546875 C 44.167969 12.546875 46.03125 14.414062 46.03125 16.710938 L 46.03125 41.691406 C 46.03125 43.988281 44.167969 45.855469 41.867188 45.855469 Z M 41.867188 45.855469"/></g><path fill="#FFF" d="M 25.515625 37.660156 C 33.367188 37.660156 37.664062 31.148438 37.664062 25.511719 C 37.664062 25.328125 37.664062 25.144531 37.65625 24.960938 C 38.488281 24.363281 39.210938 23.605469 39.789062 22.746094 C 39.019531 23.089844 38.195312 23.3125 37.332031 23.421875 C 38.214844 22.898438 38.886719 22.054688 39.210938 21.058594 C 38.386719 21.546875 37.472656 21.898438 36.5 22.089844 C 35.714844 21.257812 34.609375 20.742188 33.382812 20.742188 C 31.027344 20.742188 29.113281 22.65625 29.113281 25.011719 C 29.113281 25.34375 29.15625 25.671875 29.222656 25.988281 C 25.675781 25.8125 22.527344 24.105469 20.417969 21.523438 C 20.054688 22.15625 19.84375 22.890625 19.84375 23.671875 C 19.84375 25.152344 20.601562 26.460938 21.742188 27.226562 C 21.042969 27.203125 20.386719 27.011719 19.8125 26.695312 C 19.8125 26.710938 19.8125 26.726562 19.8125 26.753906 C 19.8125 28.816406 21.285156 30.550781 23.234375 30.941406 C 22.875 31.039062 22.5 31.089844 22.109375 31.089844 C 21.835938 31.089844 21.570312 31.066406 21.3125 31.015625 C 21.851562 32.714844 23.433594 33.945312 25.300781 33.980469 C 23.832031 35.128906 21.992188 35.8125 19.996094 35.8125 C 19.652344 35.8125 19.3125 35.796875 18.980469 35.753906 C 20.859375 36.953125 23.109375 37.660156 25.515625 37.660156"/></svg>